<svg width="32" height="32" viewBox="30 30 140 140" xmlns="http://www.w3.org/2000/svg">
  <!-- Dış çerçeve ve çıkıntılar -->
  <g stroke="#000" stroke-width="12" fill="none" stroke-linecap="round">
    <rect x="50" y="50" width="100" height="100" rx="12" />
    <!-- Üst çıkıntılar -->
    <line x1="75" y1="30" x2="75" y2="50" />
    <line x1="100" y1="30" x2="100" y2="50" />
    <line x1="125" y1="30" x2="125" y2="50" />
    <!-- Alt çıkıntılar -->
    <line x1="75" y1="150" x2="75" y2="170" />
    <line x1="100" y1="150" x2="100" y2="170" />
    <line x1="125" y1="150" x2="125" y2="170" />
    <!-- Sol çıkıntılar -->
    <line x1="30" y1="75" x2="50" y2="75" />
    <line x1="30" y1="100" x2="50" y2="100" />
    <line x1="30" y1="125" x2="50" y2="125" />
    <!-- Sağ çıkıntılar -->
    <line x1="150" y1="75" x2="170" y2="75" />
    <line x1="150" y1="100" x2="170" y2="100" />
    <line x1="150" y1="125" x2="170" y2="125" />
  </g>

  <!-- İçteki mavi kare -->
  <rect x="80" y="80" width="40" height="40" rx="8" fill="#00AEEF" />
</svg>
